# MagicaVoxel @ Ephtracy

# group
o 

# material
mtllib table.mtl
usemtl palette

# normals
vn -1 0 0
vn 1 0 0
vn 0 0 1
vn 0 0 -1
vn 0 -1 0
vn 0 1 0

# texcoords
vt 0.0136719 0.5
vt 0.0566406 0.5
vt 0.0605469 0.5

# verts
v -1.2 0.9 0.7
v -1.2 0.9 -0.7
v -1.2 1.1 0.7
v -1.2 1.1 -0.7
v -1 0 0.5
v -1 0 0.3
v -1 0 -0.3
v -1 0 -0.5
v -1 0.1 0.5
v -1 0.1 0.3
v -1 0.1 -0.3
v -1 0.1 -0.5
v -1 0.9 0.5
v -1 0.9 0.3
v -1 0.9 -0.3
v -1 0.9 -0.5
v 0.8 0 0.5
v 0.8 0 0.3
v 0.8 0 -0.3
v 0.8 0 -0.5
v 0.8 0.1 0.5
v 0.8 0.1 0.3
v 0.8 0.1 -0.3
v 0.8 0.1 -0.5
v 0.8 0.9 0.5
v 0.8 0.9 0.3
v 0.8 0.9 -0.3
v 0.8 0.9 -0.5
v -0.8 0 0.5
v -0.8 0 0.3
v -0.8 0 -0.3
v -0.8 0 -0.5
v -0.8 0.1 0.5
v -0.8 0.1 0.3
v -0.8 0.1 -0.3
v -0.8 0.1 -0.5
v -0.8 0.9 0.5
v -0.8 0.9 0.3
v -0.8 0.9 -0.3
v -0.8 0.9 -0.5
v 1 0 0.5
v 1 0 0.3
v 1 0 -0.3
v 1 0 -0.5
v 1 0.1 0.5
v 1 0.1 0.3
v 1 0.1 -0.3
v 1 0.1 -0.5
v 1 0.9 0.5
v 1 0.9 0.3
v 1 0.9 -0.3
v 1 0.9 -0.5
v 1.2 0.9 0.7
v 1.2 0.9 -0.7
v 1.2 1.1 0.7
v 1.2 1.1 -0.7
v -1.2 0.9 0.7
v -1.2 1.1 0.7
v 1.2 0.9 0.7
v 1.2 1.1 0.7
v -1 0 0.5
v -1 0.1 0.5
v -1 0.9 0.5
v -0.8 0 0.5
v -0.8 0.1 0.5
v -0.8 0.9 0.5
v 0.8 0 0.5
v 0.8 0.1 0.5
v 0.8 0.9 0.5
v 1 0 0.5
v 1 0.1 0.5
v 1 0.9 0.5
v -1 0 -0.3
v -1 0.1 -0.3
v -1 0.9 -0.3
v -0.8 0 -0.3
v -0.8 0.1 -0.3
v -0.8 0.9 -0.3
v 0.8 0 -0.3
v 0.8 0.1 -0.3
v 0.8 0.9 -0.3
v 1 0 -0.3
v 1 0.1 -0.3
v 1 0.9 -0.3
v -1 0 0.3
v -1 0.1 0.3
v -1 0.9 0.3
v -0.8 0 0.3
v -0.8 0.1 0.3
v -0.8 0.9 0.3
v 0.8 0 0.3
v 0.8 0.1 0.3
v 0.8 0.9 0.3
v 1 0 0.3
v 1 0.1 0.3
v 1 0.9 0.3
v -1 0 -0.5
v -1 0.1 -0.5
v -1 0.9 -0.5
v -0.8 0 -0.5
v -0.8 0.1 -0.5
v -0.8 0.9 -0.5
v 0.8 0 -0.5
v 0.8 0.1 -0.5
v 0.8 0.9 -0.5
v 1 0 -0.5
v 1 0.1 -0.5
v 1 0.9 -0.5
v -1.2 0.9 -0.7
v -1.2 1.1 -0.7
v 1.2 0.9 -0.7
v 1.2 1.1 -0.7
v -1 0 0.5
v -0.8 0 0.5
v 0.8 0 0.5
v 1 0 0.5
v -1 0 0.3
v -0.8 0 0.3
v 0.8 0 0.3
v 1 0 0.3
v -1 0 -0.3
v -0.8 0 -0.3
v 0.8 0 -0.3
v 1 0 -0.3
v -1 0 -0.5
v -0.8 0 -0.5
v 0.8 0 -0.5
v 1 0 -0.5
v -1.2 0.9 0.7
v 1.2 0.9 0.7
v -1.1 0.9 0.6
v 1.1 0.9 0.6
v -1 0.9 0.5
v -0.8 0.9 0.5
v 0.8 0.9 0.5
v 1 0.9 0.5
v -1 0.9 0.3
v -0.8 0.9 0.3
v 0.8 0.9 0.3
v 1 0.9 0.3
v -1 0.9 -0.3
v -0.8 0.9 -0.3
v 0.8 0.9 -0.3
v 1 0.9 -0.3
v -1 0.9 -0.5
v -0.8 0.9 -0.5
v 0.8 0.9 -0.5
v 1 0.9 -0.5
v -1.1 0.9 -0.6
v 1.1 0.9 -0.6
v -1.2 0.9 -0.7
v 1.2 0.9 -0.7
v -1.2 1.1 0.7
v 1.2 1.1 0.7
v -1.1 1.1 0.6
v 1.1 1.1 0.6
v -1.1 1.1 -0.6
v 1.1 1.1 -0.6
v -1.2 1.1 -0.7
v 1.2 1.1 -0.7

# faces
f 3/1/1 2/1/1 1/1/1
f 4/1/1 2/1/1 3/1/1
f 9/3/1 6/3/1 5/3/1
f 10/3/1 6/3/1 9/3/1
f 11/3/1 8/3/1 7/3/1
f 12/3/1 8/3/1 11/3/1
f 13/1/1 10/1/1 9/1/1
f 14/1/1 10/1/1 13/1/1
f 15/1/1 12/1/1 11/1/1
f 16/1/1 12/1/1 15/1/1
f 21/3/1 18/3/1 17/3/1
f 22/3/1 18/3/1 21/3/1
f 23/3/1 20/3/1 19/3/1
f 24/3/1 20/3/1 23/3/1
f 25/1/1 22/1/1 21/1/1
f 26/1/1 22/1/1 25/1/1
f 27/1/1 24/1/1 23/1/1
f 28/1/1 24/1/1 27/1/1
f 29/3/2 30/3/2 33/3/2
f 33/3/2 30/3/2 34/3/2
f 31/3/2 32/3/2 35/3/2
f 35/3/2 32/3/2 36/3/2
f 33/1/2 34/1/2 37/1/2
f 37/1/2 34/1/2 38/1/2
f 35/1/2 36/1/2 39/1/2
f 39/1/2 36/1/2 40/1/2
f 41/3/2 42/3/2 45/3/2
f 45/3/2 42/3/2 46/3/2
f 43/3/2 44/3/2 47/3/2
f 47/3/2 44/3/2 48/3/2
f 45/1/2 46/1/2 49/1/2
f 49/1/2 46/1/2 50/1/2
f 47/1/2 48/1/2 51/1/2
f 51/1/2 48/1/2 52/1/2
f 53/1/2 54/1/2 55/1/2
f 55/1/2 54/1/2 56/1/2
f 59/1/3 58/1/3 57/1/3
f 60/1/3 58/1/3 59/1/3
f 64/3/3 62/3/3 61/3/3
f 65/1/3 63/1/3 62/1/3
f 65/3/3 62/3/3 64/3/3
f 66/1/3 63/1/3 65/1/3
f 70/3/3 68/3/3 67/3/3
f 71/1/3 69/1/3 68/1/3
f 71/3/3 68/3/3 70/3/3
f 72/1/3 69/1/3 71/1/3
f 76/3/3 74/3/3 73/3/3
f 77/1/3 75/1/3 74/1/3
f 77/3/3 74/3/3 76/3/3
f 78/1/3 75/1/3 77/1/3
f 82/3/3 80/3/3 79/3/3
f 83/1/3 81/1/3 80/1/3
f 83/3/3 80/3/3 82/3/3
f 84/1/3 81/1/3 83/1/3
f 85/3/4 86/3/4 88/3/4
f 86/1/4 87/1/4 89/1/4
f 88/3/4 86/3/4 89/3/4
f 89/1/4 87/1/4 90/1/4
f 91/3/4 92/3/4 94/3/4
f 92/1/4 93/1/4 95/1/4
f 94/3/4 92/3/4 95/3/4
f 95/1/4 93/1/4 96/1/4
f 97/3/4 98/3/4 100/3/4
f 98/1/4 99/1/4 101/1/4
f 100/3/4 98/3/4 101/3/4
f 101/1/4 99/1/4 102/1/4
f 103/3/4 104/3/4 106/3/4
f 104/1/4 105/1/4 107/1/4
f 106/3/4 104/3/4 107/3/4
f 107/1/4 105/1/4 108/1/4
f 109/1/4 110/1/4 111/1/4
f 111/1/4 110/1/4 112/1/4
f 117/3/5 114/3/5 113/3/5
f 118/3/5 114/3/5 117/3/5
f 119/3/5 116/3/5 115/3/5
f 120/3/5 116/3/5 119/3/5
f 125/3/5 122/3/5 121/3/5
f 126/3/5 122/3/5 125/3/5
f 127/3/5 124/3/5 123/3/5
f 128/3/5 124/3/5 127/3/5
f 131/1/5 130/1/5 129/1/5
f 132/1/5 130/1/5 131/1/5
f 133/2/5 132/2/5 131/2/5
f 134/2/5 132/2/5 133/2/5
f 135/2/5 132/2/5 134/2/5
f 136/2/5 132/2/5 135/2/5
f 137/2/5 133/2/5 131/2/5
f 138/2/5 135/2/5 134/2/5
f 139/2/5 135/2/5 138/2/5
f 140/2/5 132/2/5 136/2/5
f 141/2/5 139/2/5 138/2/5
f 141/2/5 140/2/5 139/2/5
f 141/2/5 137/2/5 131/2/5
f 141/2/5 138/2/5 137/2/5
f 142/2/5 140/2/5 141/2/5
f 143/2/5 140/2/5 142/2/5
f 144/2/5 132/2/5 140/2/5
f 144/2/5 140/2/5 143/2/5
f 145/2/5 141/2/5 131/2/5
f 146/2/5 143/2/5 142/2/5
f 147/2/5 143/2/5 146/2/5
f 148/2/5 132/2/5 144/2/5
f 149/1/5 131/1/5 129/1/5
f 149/2/5 148/2/5 147/2/5
f 149/2/5 145/2/5 131/2/5
f 149/2/5 147/2/5 146/2/5
f 149/2/5 146/2/5 145/2/5
f 150/2/5 132/2/5 148/2/5
f 150/2/5 148/2/5 149/2/5
f 150/1/5 130/1/5 132/1/5
f 151/1/5 149/1/5 129/1/5
f 151/1/5 150/1/5 149/1/5
f 152/1/5 130/1/5 150/1/5
f 152/1/5 150/1/5 151/1/5
f 153/1/6 154/1/6 155/1/6
f 155/1/6 154/1/6 156/1/6
f 153/1/6 155/1/6 157/1/6
f 155/2/6 156/2/6 157/2/6
f 156/1/6 154/1/6 158/1/6
f 157/2/6 156/2/6 158/2/6
f 153/1/6 157/1/6 159/1/6
f 157/1/6 158/1/6 159/1/6
f 158/1/6 154/1/6 160/1/6
f 159/1/6 158/1/6 160/1/6
